HIERARCHY
ROOT Hips
{
	OFFSET -3.958830 18.904000 13.208200
	CHANNELS 6 Xposition Yposition Zposition Zrotation Yrotation Xrotation 
	JOINT LHipJoint
	{
		OFFSET 0.000000 0.000000 0.000000
		CHANNELS 3 Zrotation Yrotation Xrotation
		JOINT LeftUpLeg
		{
			OFFSET 1.800000 -1.400000 0.085000
			CHANNELS 3 Zrotation Yrotation Xrotation
			JOINT LeftLeg
			{
				OFFSET 2.215000 -6.000000 0.000000
				CHANNELS 3 Zrotation Yrotation Xrotation
				JOINT LeftFoot
				{
					OFFSET 2.500000 -6.900000 0.000000
					CHANNELS 3 Zrotation Yrotation Xrotation
					JOINT LeftToeBase
					{
						OFFSET 0.200000 -0.500000 1.950000
						CHANNELS 3 Zrotation Yrotation Xrotation
						End Site
						{
							OFFSET 0.000000 0.000000 0.000000
						}
					}
				}
			}
		}
	}
	JOINT RHipJoint
	{
		OFFSET 0.000000 0.000000 0.000000
		CHANNELS 3 Zrotation Yrotation Xrotation
		JOINT RightUpLeg
		{
			OFFSET -1.800000 -1.400000 0.085000
			CHANNELS 3 Zrotation Yrotation Xrotation
			JOINT RightLeg
			{
				OFFSET -2.215000 -6.000000 0.000000
				CHANNELS 3 Zrotation Yrotation Xrotation
				JOINT RightFoot
				{
					OFFSET -2.500000 -6.900000 0.000000
					CHANNELS 3 Zrotation Yrotation Xrotation
					JOINT RightToeBase
					{
						OFFSET -0.200000 -0.500000 1.950000
						CHANNELS 3 Zrotation Yrotation Xrotation
						End Site
						{
							OFFSET 0.000000 0.000000 0.000000
						}
					}
				}
			}
		}
	}
	JOINT LowerBack
	{
		OFFSET 0.000000 0.000000 0.000000
		CHANNELS 3 Zrotation Yrotation Xrotation
		JOINT Spine
		{
			OFFSET -0.087000 1.940000 -0.288900
			CHANNELS 3 Zrotation Yrotation Xrotation
			JOINT Spine1
			{
				OFFSET 0.000000 1.950000 0.060000
				CHANNELS 3 Zrotation Yrotation Xrotation
				JOINT Neck
				{
					OFFSET 0.000000 0.000000 0.000000
					CHANNELS 3 Zrotation Yrotation Xrotation
					JOINT Neck1
					{
						OFFSET 0.000000 1.600000 0.340000
						CHANNELS 3 Zrotation Yrotation Xrotation
						JOINT Head
						{
							OFFSET 0.000000 1.667000 -0.240000
							CHANNELS 3 Zrotation Yrotation Xrotation
							End Site
							{
								OFFSET 0.000000 0.000000 0.000000
							}
						}
					}
				}
				JOINT LeftShoulder
				{
					OFFSET 0.000000 0.000000 0.000000
					CHANNELS 3 Zrotation Yrotation Xrotation
					JOINT LeftArm
					{
						OFFSET 2.700000 1.550000 -0.730000
						CHANNELS 3 Zrotation Yrotation Xrotation
						JOINT LeftForeArm
						{
							OFFSET 5.450000 0.000000 0.000000
							CHANNELS 3 Zrotation Yrotation Xrotation
							JOINT LeftHand
							{
								OFFSET 3.450000 0.000000 0.000000
								CHANNELS 3 Zrotation Yrotation Xrotation
								JOINT LeftHandIndex1
								{
									OFFSET 0.750000 0.000000 0.000000
									CHANNELS 3 Zrotation Yrotation Xrotation
									End Site
									{
										OFFSET 0.000000 0.000000 0.000000
									}
								}
							}
						}
					}
				}
				JOINT RightShoulder
				{
					OFFSET 0.000000 0.000000 0.000000
					CHANNELS 3 Zrotation Yrotation Xrotation
					JOINT RightArm
					{
						OFFSET -2.700000 1.550000 -0.730000
						CHANNELS 3 Zrotation Yrotation Xrotation
						JOINT RightForeArm
						{
							OFFSET -5.450000 0.000000 0.000000
							CHANNELS 3 Zrotation Yrotation Xrotation
							JOINT RightHand
							{
								OFFSET -3.450000 0.000000 0.000000
								CHANNELS 3 Zrotation Yrotation Xrotation
								JOINT RightHandIndex1
								{
									OFFSET -0.750000 0.000000 0.000000
									CHANNELS 3 Zrotation Yrotation Xrotation
									End Site
									{
										OFFSET 0.000000 0.000000 0.000000
									}
								}
							}
						}
					}
				}
			}
		}
	}
}
MOTION
Frames: 4
Frame Time: 0.016667
-1.214860 17.341650 -1.045150 -1.022427 -1.543367 8.258960 -15.140255 12.414103 2.721503 22.526361 -1.283001 -10.496361 -2.490280 3.788682 0.751580 -1.378125 6.599153 3.170768 -0.074950 -0.905360 -0.440290 18.487557 -10.175359 2.783594 -2.675683 1.165990 -7.754799 12.669709 -5.380371 2.114468 -0.450828 -4.731497 2.933178 0.009780 2.213300 1.068860 -3.910632 -1.312001 -6.810551 11.533690 0.340628 0.052438 -5.999209 0.389791 8.720903 1.467525 -2.846755 -7.753169 -4.528184 6.975751 17.828661 -4.685140 0.799370 -2.996520 -14.025710 -5.970939 2.285968 3.115447 -1.834253 3.299805 6.447209 -0.691626 -2.603290 -5.408344 2.430112 0.759000 1.309270 -0.660940 0.765560 11.528314 6.774890 4.496492 -0.971107 6.157494 -1.034899 -7.205441 9.762262 -0.976508 1.280830 -1.349110 -0.980820 1.084660 0.819460 -0.012720 
-1.216550 17.341880 -1.049730 -0.957323 -1.436133 8.303805 -15.141465 12.379674 2.735788 22.669852 -1.311142 -10.472370 -2.364543 3.737280 0.424601 -1.381489 6.616183 3.167061 -0.076800 -0.908470 -0.438650 18.491171 -10.147804 2.790414 -2.820151 1.160403 -7.667752 13.044513 -5.390703 1.817192 -0.458245 -4.761541 2.925116 0.011010 2.216990 1.067880 -3.915929 -1.308122 -6.821306 11.610453 0.352764 0.019554 -6.072711 0.413542 8.829496 1.494943 -2.815233 -7.726291 -4.481817 6.946669 17.894804 -4.771840 0.808250 -3.057480 -14.120957 -5.836017 2.233603 3.451031 -1.682446 3.341415 6.084804 0.083060 -2.625419 -5.422254 2.414985 0.763210 1.312880 -0.662360 0.763920 11.564572 6.568850 4.530433 -1.295834 5.791481 -0.973647 -6.928115 8.417385 -0.960809 1.297225 -1.339810 -0.986930 1.091200 0.822700 -0.016100 
-1.219790 17.342040 -1.053010 -0.864855 -1.402470 8.333865 -15.144616 12.363360 2.742918 22.728518 -1.340566 -10.419578 -2.119362 3.662370 0.134888 -1.386957 6.615225 3.169613 -0.066840 -0.899800 -0.429640 18.490483 -10.133317 2.791930 -2.944814 1.151955 -7.595213 13.103969 -5.366759 1.574558 -0.469057 -4.770526 2.922346 0.016500 2.214130 1.072250 -3.911082 -1.310337 -6.824856 11.522619 0.421049 0.008965 -6.035571 0.470978 8.914396 1.518412 -2.733108 -7.677439 -4.354879 6.911860 18.007857 -4.832880 0.831530 -3.267980 -14.172519 -5.681443 2.151193 3.748513 -1.665613 3.375578 5.729343 0.789311 -2.653622 -5.429054 2.403632 0.773190 1.311860 -0.654560 0.767710 11.570559 6.330313 4.540762 -1.499424 5.448683 -0.924310 -6.666906 7.325257 -0.946769 1.308728 -1.334512 -0.987780 1.094940 0.818180 -0.019460 
-1.221820 17.341710 -1.055640 -0.772389 -1.413687 8.357263 -15.146210 12.359757 2.744635 22.723819 -1.378220 -10.336985 -1.726726 3.564546 -0.156847 -1.393014 6.603669 3.171536 -0.065220 -0.901970 -0.426280 18.488672 -10.131785 2.789826 -3.085016 1.152608 -7.565849 12.941686 -5.323005 1.394203 -0.469633 -4.767735 2.920934 0.017510 2.207920 1.079190 -3.906266 -1.308809 -6.824780 11.434236 0.500364 0.012644 -6.014295 0.541647 8.940993 1.570258 -2.635058 -7.638405 -4.201565 6.928311 18.113973 -4.935770 0.935300 -3.316110 -14.249307 -5.574427 2.075623 4.056476 -1.669696 3.406868 5.336576 1.423250 -2.684780 -5.442073 2.402392 0.776970 1.313450 -0.652080 0.763990 11.546698 6.139079 4.555188 -1.772231 5.161516 -0.842486 -6.104166 6.229397 -0.916553 1.320487 -1.330239 -0.986440 1.087980 0.821810 -0.026320 
